# xmcd CD database file
#
# Track frame offsets:
#	150
#	12027
#	23501
#	33619
#	46084
#	63516
#	73959
#	86355
#	99000
#	112287
#	123134
#	135596
#	153913
#	171396
#	185136
#	198945
#	209879
#	226222
#
# Disc length: 3176 seconds
#
# Revision: 2
# Processed by: cddbd v1.5.2PL0 Copyright (c) Steve Scherf et al.
# Submitted via: CDex 1.51
#
DISCID=f40c6612
DTITLE=John Lee Hooker - The Solid Gold Collection - 36 Blues Masterpieces  [CD 1-2]
DYEAR=2005
DGENRE=Blues
TTITLE0=Boogie Chillun
TTITLE1=Boom, Boom
TTITLE2=Dimples
TTITLE3=Crawling King Snake Blues
TTITLE4=Blues Before Sunrise
TTITLE5=Big Legs, Tight Skirt
TTITLE6=I'm In The Mood
TTITLE7=Take A Look At Yourself
TTITLE8=Don't Look Back
TTITLE9=Maudie
TTITLE10=Trouble Blues
TTITLE11=One Bourbon, One Scotch, One Beer
TTITLE12=My Own Fault
TTITLE13=Time Is Marching
TTITLE14=The Road Is So Rough
TTITLE15=Send Me Your Pillow
TTITLE16=Lowdown Midnight Boogie
TTITLE17=Love Is A Burning Thing
EXTD=YEAR: 2005
EXTT0=
EXTT1=
EXTT2=
EXTT3=
EXTT4=
EXTT5=
EXTT6=
EXTT7=
EXTT8=
EXTT9=
EXTT10=
EXTT11=
EXTT12=
EXTT13=
EXTT14=
EXTT15=
EXTT16=
EXTT17=
PLAYORDER=
